<?xml version="1.0" standalone="no"?>
<!DOCTYPE svg PUBLIC "-//W3C//DTD SVG 20010904//EN"
 "http://www.w3.org/TR/2001/REC-SVG-20010904/DTD/svg10.dtd">
<svg version="1.0" xmlns="http://www.w3.org/2000/svg"
 width="1862.000000pt" height="643.000000pt" viewBox="0 0 1862.000000 643.000000"
 preserveAspectRatio="xMidYMid meet">

<g transform="translate(0.000000,643.000000) scale(0.100000,-0.100000)"
fill="#000000" stroke="none">
<path d="M14013 6414 c-393 -86 -655 -325 -745 -680 -21 -79 -23 -113 -23
-311 l0 -222 -105 -37 c-330 -116 -559 -246 -650 -369 -58 -78 -65 -106 -64
-240 0 -98 5 -138 27 -220 109 -397 471 -1029 993 -1732 l113 -152 -173 -733
c-167 -709 -173 -734 -160 -777 34 -115 191 -315 318 -406 304 -215 716 -228
1225 -38 107 39 328 139 379 170 l33 21 117 -88 c330 -245 549 -323 730 -260
173 61 365 263 575 607 78 129 267 496 347 674 l43 97 321 188 c703 412 1109
655 1123 671 7 10 38 68 68 128 271 548 43 1134 -622 1600 l-98 69 -1 256 c0
231 -2 262 -22 335 -50 182 -116 262 -276 340 -249 121 -661 182 -1306 194
l-355 6 -725 414 c-399 227 -764 435 -811 462 -80 45 -91 49 -150 48 -35 -1
-92 -7 -126 -15z m2719 -1270 c281 -27 505 -75 618 -132 91 -46 119 -128 120
-346 0 -81 -3 -97 -14 -93 -20 8 -1009 578 -1021 588 -10 10 71 5 297 -17z
m-3392 -326 c55 -190 184 -602 307 -987 l136 -424 -62 -266 c-35 -146 -64
-267 -65 -269 -5 -4 -263 367 -358 513 -309 477 -503 867 -548 1102 -18 90 -8
127 43 165 55 40 256 136 382 182 55 20 109 41 120 46 11 5 21 9 22 9 1 1 12
-32 23 -71z m2604 -830 c693 -397 1263 -723 1265 -725 14 -10 -98 -77 -784
-466 -412 -234 -973 -551 -1245 -706 -272 -154 -496 -277 -498 -272 -2 5 87
326 198 713 110 388 200 712 200 720 0 12 -389 1402 -405 1446 -2 6 -2 12 2
12 3 0 573 -325 1267 -722z m491 -2675 c-172 -322 -364 -581 -482 -650 -39
-23 -47 -24 -94 -14 -28 6 -86 29 -128 51 -99 52 -235 150 -225 160 5 5 155
91 334 193 179 101 395 225 480 275 85 50 159 91 163 92 5 0 -17 -48 -48 -107z"/>
<path d="M1085 6384 c-171 -20 -301 -57 -427 -120 -308 -155 -528 -430 -620
-776 l-22 -83 -4 -1150 c-2 -812 0 -1174 8 -1230 13 -93 65 -256 111 -347 111
-221 311 -418 537 -532 81 -41 218 -84 322 -101 82 -13 264 -15 1303 -15
l1207 0 0 68 c-2 280 -100 525 -254 632 -24 16 -72 38 -107 50 -64 22 -70 22
-1050 26 -856 3 -992 6 -1030 19 -138 49 -238 162 -268 303 -7 34 -11 201 -11
477 l0 425 970 0 970 0 0 390 0 390 -970 0 -970 0 0 223 c0 242 7 287 56 377
35 65 112 135 184 169 l55 26 1000 5 c935 5 1004 7 1055 24 162 54 265 174
324 379 25 86 46 235 46 327 l0 50 -1192 -1 c-656 -1 -1206 -4 -1223 -5z"/>
<path d="M5713 6372 c-28 -10 -69 -30 -91 -44 -102 -68 -58 24 -1068 -2203
-519 -1144 -944 -2084 -944 -2089 0 -14 342 0 445 19 123 22 285 77 375 128
46 25 105 72 151 118 75 74 80 82 206 335 71 142 152 310 181 372 l51 112 803
0 803 0 183 -372 183 -372 83 -82 c69 -68 100 -90 187 -133 185 -91 380 -131
633 -131 80 0 146 3 146 7 0 3 -384 850 -854 1882 -470 1032 -896 1968 -947
2080 -79 173 -101 213 -147 262 -103 112 -254 156 -379 111z m328 -2009 l216
-458 -430 -3 c-237 -1 -432 0 -434 2 -6 5 419 916 427 916 3 0 102 -206 221
-457z"/>
<path d="M8180 4206 l0 -2176 708 0 c414 0 755 4 822 11 400 36 793 188 1112
430 179 136 390 365 521 564 165 254 288 592 326 905 16 128 14 445 -5 569
-127 874 -760 1583 -1607 1800 -247 64 -248 64 -1099 68 l-778 4 0 -2175z
m1382 1394 c215 -18 377 -63 560 -157 414 -211 702 -594 774 -1032 24 -147 15
-366 -20 -508 -139 -558 -610 -984 -1191 -1078 -65 -11 -177 -15 -407 -15
l-318 0 0 1400 0 1400 243 0 c133 0 295 -5 359 -10z"/>
<path d="M11550 1600 c-79 -49 -146 -93 -148 -99 -4 -11 66 -131 76 -131 7 0
284 170 299 184 10 9 4 25 -25 73 -20 35 -41 63 -47 62 -5 0 -75 -40 -155 -89z"/>
<path d="M8180 1273 c0 -203 4 -406 10 -452 18 -154 101 -280 225 -342 130
-64 360 -64 491 1 106 52 191 167 214 291 6 29 10 236 10 460 l0 409 -80 0
-80 0 0 -408 c0 -462 -2 -477 -70 -555 -58 -66 -107 -82 -250 -82 -108 0 -118
2 -168 30 -55 30 -97 80 -122 145 -11 27 -15 133 -18 453 l-4 417 -79 0 -79 0
0 -367z"/>
<path d="M10102 1615 c-75 -63 -33 -175 66 -175 61 0 102 40 102 100 0 88
-100 133 -168 75z"/>
<path d="M10409 1611 c-65 -66 -20 -171 73 -171 99 0 141 112 66 175 -43 36
-100 35 -139 -4z"/>
<path d="M9557 1220 c-27 -5 -67 -16 -88 -24 -49 -20 -49 -20 -49 4 0 18 -7
20 -80 20 l-80 0 2 -392 3 -393 77 -3 77 -3 3 273 c3 305 3 304 73 340 57 30
184 30 240 1 70 -37 70 -36 73 -341 l3 -273 77 3 77 3 0 275 c0 246 -2 280
-19 324 -40 104 -132 169 -259 186 -39 5 -74 9 -77 9 -3 -1 -27 -5 -53 -9z"/>
<path d="M10090 830 l0 -401 78 3 77 3 0 395 0 395 -77 3 -78 3 0 -401z"/>
<path d="M10405 1218 c-3 -7 -6 -195 -7 -418 l-3 -405 -27 -56 c-30 -59 -82
-99 -132 -99 -26 0 -26 0 -26 -80 l0 -80 38 0 c140 0 270 129 302 300 6 30 10
228 10 451 l0 399 -75 0 c-51 0 -77 -4 -80 -12z"/>
<path d="M10684 1216 c-3 -8 -4 -135 -2 -283 3 -254 4 -271 26 -318 44 -96
123 -153 242 -175 80 -15 159 -6 228 25 l52 24 0 -25 c0 -23 2 -24 80 -24 l80
0 -2 393 -3 392 -77 3 -78 3 0 -263 c0 -299 -3 -315 -74 -352 -57 -29 -185
-28 -242 1 -67 35 -69 45 -72 346 l-3 267 -75 0 c-56 0 -76 -4 -80 -14z"/>
<path d="M11515 1217 c-3 -6 -4 -185 -3 -397 l3 -385 78 -3 77 -3 0 401 0 400
-75 0 c-51 0 -77 -4 -80 -13z"/>
</g>
</svg>
